<svg xmlns="http://www.w3.org/2000/svg" xmlns:xlink="http://www.w3.org/1999/xlink" width="500" zoomAndPan="magnify" viewBox="0 0 375 374.999991" height="500" preserveAspectRatio="xMidYMid meet" version="1.0"><defs><g/><clipPath id="936f07ff20"><path d="M 37.5 130.609375 L 268.386719 130.609375 L 268.386719 203.195312 L 37.5 203.195312 Z M 37.5 130.609375 " clip-rule="nonzero"/></clipPath></defs><g clip-path="url(#936f07ff20)"><path fill="#86ab57" d="M 37.5 130.609375 L 268.300781 130.609375 L 268.300781 203.195312 L 37.5 203.195312 Z M 37.5 130.609375 " fill-opacity="1" fill-rule="nonzero"/></g><g fill="#7ba24b" fill-opacity="1"><g transform="translate(270.806589, 155.650449)"><g><path d="M 19.46875 -22.949219 L 13.980469 -22.949219 L 13.980469 -18.121094 C 16.5 -18.121094 18.148438 -18.628906 18.960938 -19.949219 L 21.449219 -19.949219 C 21.449219 -15.601562 21.058594 -13.171875 19.710938 -11.820312 C 18.480469 -12.78125 17.941406 -14.308594 17.941406 -16.859375 L 17.941406 -17.699219 L 14.941406 -17.699219 L 14.941406 -16.859375 C 14.941406 -13.980469 15.449219 -11.941406 17.011719 -10.589844 C 16.140625 -10.441406 15.089844 -10.378906 13.890625 -10.378906 L 13.890625 -8.191406 C 16.648438 -8.191406 18.839844 -8.429688 20.640625 -8.878906 C 22.679688 -8.398438 25.378906 -8.191406 29.011719 -8.191406 L 29.011719 -10.378906 C 27.121094 -10.378906 25.558594 -10.410156 24.210938 -10.5 C 26.761719 -12.421875 27.601562 -15.570312 27.601562 -19.949219 L 29.039062 -19.949219 L 29.039062 -22.171875 L 19.46875 -22.171875 Z M 1.289062 -19.980469 L 2.371094 -19.980469 L 2.371094 -7.738281 L 7.46875 -7.738281 L 7.46875 -19.980469 C 8.640625 -20.191406 9.148438 -21.300781 9.148438 -22.980469 L 5.699219 -22.980469 C 5.699219 -22.351562 5.609375 -21.871094 4.800781 -21.871094 L 1.289062 -21.871094 Z M 22.558594 -0.03125 L 15.269531 -0.03125 L 15.269531 -7.109375 L 8.070312 -7.109375 L 8.070312 -2.671875 C 8.070312 1.140625 9.480469 2.160156 15.210938 2.160156 L 22.558594 2.160156 Z M 13.050781 -20.25 L 8.550781 -20.25 L 8.550781 -9.238281 L 13.050781 -9.238281 Z M 6.75 -7.109375 L 2.128906 -7.109375 L 0.808594 2.160156 C 3.960938 2.160156 5.578125 1.109375 5.910156 -0.808594 Z M 27.71875 -7.109375 L 23.160156 -7.109375 L 24 -0.808594 C 24.328125 1.109375 25.890625 2.160156 29.039062 2.160156 Z M 21.390625 -7.109375 L 16.859375 -7.109375 L 17.25 -4.261719 C 17.578125 -2.308594 19.140625 -1.230469 22.289062 -1.230469 Z M 21.390625 -7.109375 "/></g></g></g><g fill="#7ba24b" fill-opacity="1"><g transform="translate(300.806563, 155.650449)"><g><path d="M 9 2.128906 C 10.53125 -0.601562 11.488281 -4.890625 11.878906 -12.78125 L 13.351562 -12.78125 L 13.351562 -0.0585938 L 11.820312 -0.0585938 L 11.820312 2.128906 L 12.929688 2.128906 C 17.429688 2.128906 17.878906 0 17.878906 -3.71875 L 17.878906 -15.03125 L 11.96875 -15.03125 C 12.03125 -16.378906 12.058594 -17.820312 12.058594 -19.410156 L 17.789062 -19.410156 L 17.789062 -21.628906 L 14.910156 -21.628906 L 14.578125 -22.980469 L 10.109375 -22.980469 L 10.441406 -21.628906 L 7.859375 -21.628906 L 7.859375 -19.410156 L 9.058594 -19.410156 C 8.910156 -7.46875 7.648438 -1.949219 5.96875 2.128906 Z M 28.980469 -9.179688 L 26.429688 -9.179688 L 26.429688 -10.230469 L 28.289062 -13.410156 C 29.339844 -15.089844 28.558594 -17.160156 26.460938 -17.160156 L 19.109375 -17.160156 L 19.109375 -14.789062 L 23.550781 -14.789062 L 21.03125 -10.230469 L 21.03125 -9.179688 L 18.660156 -9.179688 L 18.660156 -6.960938 L 21.03125 -6.960938 L 21.03125 -0.03125 L 18.898438 -0.03125 L 18.898438 2.160156 L 21.359375 2.160156 C 25.53125 2.160156 26.429688 0.808594 26.429688 -1.890625 L 26.429688 -6.960938 L 28.980469 -6.960938 Z M 2.550781 -10.558594 L 0.960938 2.191406 C 3.871094 2.191406 5.851562 1.078125 6.421875 -2.21875 L 7.46875 -10.558594 Z M 18.03125 -17.519531 C 21.121094 -17.519531 22.53125 -18.238281 23.160156 -19.648438 L 28.980469 -19.648438 L 28.980469 -21.75 L 23.578125 -21.75 C 23.609375 -21.960938 23.609375 -22.199219 23.609375 -22.46875 L 23.609375 -22.949219 L 19.078125 -22.949219 L 19.078125 -22.410156 C 19.078125 -20.371094 18.960938 -19.410156 18.03125 -19.410156 Z M 6.390625 -22.828125 L 1.46875 -22.828125 L 1.980469 -20.820312 C 2.339844 -18.898438 3.871094 -18.121094 7.558594 -18.121094 Z M 6.480469 -16.890625 L 1.589844 -16.890625 L 2.039062 -14.878906 C 2.429688 -12.988281 3.988281 -12.179688 7.621094 -12.179688 Z M 6.480469 -16.890625 "/></g></g></g><g fill="#7ba24b" fill-opacity="1"><g transform="translate(270.806589, 197.650446)"><g><path d="M 21.449219 2.21875 C 27.058594 2.21875 28.53125 1.140625 28.53125 -3.328125 L 28.53125 -9.300781 L 2.578125 -9.300781 L 2.578125 2.21875 Z M 16.53125 -9.960938 L 24.300781 -9.960938 C 27.808594 -9.960938 28.980469 -10.710938 28.980469 -14.429688 L 28.980469 -22.859375 L 16.53125 -22.859375 Z M 3.78125 -18.660156 C 3.871094 -19.109375 3.898438 -19.53125 3.929688 -19.980469 L 6.089844 -19.980469 L 6.089844 -19.558594 C 6.089844 -18.808594 6.058594 -18.148438 6 -17.519531 L 1.140625 -17.519531 L 1.140625 -15.210938 L 5.550781 -15.210938 C 4.859375 -13.050781 3.511719 -11.96875 1.230469 -11.96875 L 1.230469 -10.019531 C 5.878906 -10.019531 8.460938 -11.371094 9.808594 -13.621094 C 10.738281 -11.128906 12.511719 -10.019531 15.75 -10.019531 L 15.75 -12.03125 C 13.859375 -12.03125 12.449219 -13.171875 11.609375 -15.210938 L 15.660156 -15.210938 L 15.660156 -17.519531 L 11.039062 -17.519531 C 11.128906 -18.148438 11.160156 -18.808594 11.191406 -19.53125 L 11.191406 -19.980469 L 15.660156 -19.980469 L 15.660156 -22.289062 L 4.078125 -22.289062 L 4.078125 -22.921875 L 1.410156 -22.921875 C 1.410156 -21.390625 1.320312 -19.980469 1.109375 -18.660156 Z M 5.429688 -7.078125 L 21.539062 -7.078125 L 21.539062 -4.648438 L 5.429688 -4.648438 Z M 5.429688 0 L 5.429688 -2.429688 L 21.539062 -2.429688 L 21.539062 0 Z M 19.289062 -20.671875 L 22.5 -20.671875 L 22.5 -12.179688 L 19.289062 -12.179688 Z M 19.289062 -20.671875 "/></g></g></g><g fill="#7ba24b" fill-opacity="1"><g transform="translate(300.806563, 197.650446)"><g><path d="M 15.328125 2.28125 L 19.171875 2.28125 C 25.261719 2.28125 27.03125 -0.148438 27.03125 -5.070312 L 27.03125 -13.230469 L 28.949219 -13.230469 L 28.949219 -15.480469 L 11.429688 -15.480469 L 11.429688 -13.230469 L 19.5 -13.230469 L 19.5 -0.0585938 L 15.328125 -0.0585938 Z M 1.199219 -14.96875 L 3.269531 -14.96875 L 3.269531 2.25 L 9.269531 2.25 L 9.269531 -15 C 10.710938 -15.238281 12 -16.410156 12 -18.238281 L 7.921875 -18.238281 C 7.921875 -17.640625 7.800781 -17.128906 7.050781 -17.128906 L 1.199219 -17.128906 Z M 28.46875 -23.039062 L 12.898438 -23.039062 L 12.898438 -20.789062 L 28.46875 -20.789062 Z M 1.199219 -19.679688 L 8.550781 -19.679688 C 10.589844 -19.679688 12 -20.789062 12 -22.949219 L 7.921875 -22.949219 C 7.921875 -22.351562 7.800781 -21.839844 7.050781 -21.839844 L 1.199219 -21.839844 Z M 1.199219 -19.679688 "/></g></g></g><g fill="#ffffff" fill-opacity="1"><g transform="translate(68.865231, 189.362345)"><g><path d="M 1.195312 -53.121094 C 4.242188 -43.382812 5.140625 -34.597656 5.140625 -27.007812 C 5.140625 -19.359375 3.40625 -11.890625 3.40625 -4.363281 C 3.40625 -0.894531 4.480469 0.71875 8.542969 0.71875 C 18.226562 0.71875 26.890625 -9.203125 29.636719 -21.332031 L 30.234375 -21.332031 C 34 -17.566406 35.613281 -13.742188 35.613281 -10.277344 C 35.613281 -1.734375 25.039062 4.242188 14.101562 4.242188 C 12.191406 4.242188 10.21875 4.0625 8.304688 3.703125 L 8.304688 17.386719 C 10.753906 17.984375 13.144531 18.285156 15.476562 18.285156 C 27.785156 18.285156 37.226562 9.5625 37.226562 -7.886719 C 37.226562 -14.339844 35.734375 -20.554688 35.734375 -27.007812 C 35.734375 -36.03125 37.046875 -45.175781 39.496094 -53.121094 L 25.515625 -53.121094 C 29.28125 -47.503906 30.773438 -42.007812 30.773438 -36.867188 C 30.773438 -20.855469 14.402344 -11.292969 8.964844 -11.292969 C 7.589844 -11.292969 6.992188 -12.25 6.992188 -13.863281 C 6.992188 -19.839844 18.824219 -30.714844 18.824219 -44.21875 C 18.824219 -47.085938 18.285156 -50.074219 16.96875 -53.121094 Z M 1.195312 -53.121094 "/></g></g></g><g fill="#ffffff" fill-opacity="1"><g transform="translate(111.646379, 189.362345)"><g><path d="M 20.019531 0.71875 C 32.746094 0.71875 39.140625 -12.847656 39.140625 -26.53125 C 39.140625 -40.273438 32.746094 -53.839844 20.019531 -53.839844 C 7.289062 -53.839844 0.957031 -40.273438 0.957031 -26.53125 C 0.957031 -12.847656 7.289062 0.71875 20.019531 0.71875 Z M 31.191406 -41.410156 C 33.640625 -41.410156 35.433594 -39.917969 35.433594 -36.867188 C 35.433594 -27.070312 16.730469 -11.773438 8.84375 -11.773438 C 6.394531 -11.773438 4.660156 -13.265625 4.660156 -16.253906 C 4.660156 -26.113281 23.304688 -41.410156 31.191406 -41.410156 Z M 31.191406 -41.410156 "/></g></g></g><g fill="#ffffff" fill-opacity="1"><g transform="translate(154.188538, 189.362345)"><g><path d="M 1.195312 -53.121094 C 4.242188 -43.382812 5.140625 -34.597656 5.140625 -27.007812 C 5.140625 -19.359375 3.40625 -11.890625 3.40625 -4.363281 C 3.40625 -0.894531 4.480469 0.71875 8.542969 0.71875 C 18.226562 0.71875 26.890625 -9.203125 29.636719 -21.332031 L 30.234375 -21.332031 C 34 -17.566406 35.613281 -13.742188 35.613281 -10.277344 C 35.613281 -1.734375 25.039062 4.242188 14.101562 4.242188 C 12.191406 4.242188 10.21875 4.0625 8.304688 3.703125 L 8.304688 17.386719 C 10.753906 17.984375 13.144531 18.285156 15.476562 18.285156 C 27.785156 18.285156 37.226562 9.5625 37.226562 -7.886719 C 37.226562 -14.339844 35.734375 -20.554688 35.734375 -27.007812 C 35.734375 -36.03125 37.046875 -45.175781 39.496094 -53.121094 L 25.515625 -53.121094 C 29.28125 -47.503906 30.773438 -42.007812 30.773438 -36.867188 C 30.773438 -20.855469 14.402344 -11.292969 8.964844 -11.292969 C 7.589844 -11.292969 6.992188 -12.25 6.992188 -13.863281 C 6.992188 -19.839844 18.824219 -30.714844 18.824219 -44.21875 C 18.824219 -47.085938 18.285156 -50.074219 16.96875 -53.121094 Z M 1.195312 -53.121094 "/></g></g></g><g fill="#ffffff" fill-opacity="1"><g transform="translate(196.96968, 189.362345)"><g><path d="M 20.019531 0.71875 C 32.746094 0.71875 39.140625 -12.847656 39.140625 -26.53125 C 39.140625 -40.273438 32.746094 -53.839844 20.019531 -53.839844 C 7.289062 -53.839844 0.957031 -40.273438 0.957031 -26.53125 C 0.957031 -12.847656 7.289062 0.71875 20.019531 0.71875 Z M 31.191406 -41.410156 C 33.640625 -41.410156 35.433594 -39.917969 35.433594 -36.867188 C 35.433594 -27.070312 16.730469 -11.773438 8.84375 -11.773438 C 6.394531 -11.773438 4.660156 -13.265625 4.660156 -16.253906 C 4.660156 -26.113281 23.304688 -41.410156 31.191406 -41.410156 Z M 31.191406 -41.410156 "/></g></g></g></svg>